<svg id="Layer_1" data-name="Layer 1" xmlns="http://www.w3.org/2000/svg" viewBox="0 0 589.11 191.41"><defs><style>.cls-1{fill:#323e48;}.cls-2{fill:#b12028;}.cls-3{fill:#e1251b;}.cls-4{font-size:30px;fill:#231f20;font-family:Barlow-Light, Barlow;font-weight:300;}</style></defs><path class="cls-1" d="M264.71,317a17.76,17.76,0,0,1-7.61-14.94V301a1.6,1.6,0,0,1,.49-1.18,1.58,1.58,0,0,1,1.17-.48H274a1.64,1.64,0,0,1,1.66,1.66v.27a5.85,5.85,0,0,0,2.77,5,11.52,11.52,0,0,0,6.78,1.94,9.36,9.36,0,0,0,5.95-1.74,5.29,5.29,0,0,0,2.22-4.35,4.4,4.4,0,0,0-2.42-4,47.67,47.67,0,0,0-7.83-3.18,68.15,68.15,0,0,1-6.64-2.22,37.28,37.28,0,0,1-13.5-7.47q-5.19-4.71-5.19-13.57,0-10.11,7.34-16.06t19.38-6q12.45,0,19.86,6.16t7.41,16.4c0,1-.55,1.53-1.66,1.53H295.17a1.66,1.66,0,0,1-1.66-1.67v-.41a6,6,0,0,0-2.36-4.84,9.67,9.67,0,0,0-6.36-1.95,9.43,9.43,0,0,0-6,1.81,5.44,5.44,0,0,0-2.29,4.43,4.93,4.93,0,0,0,2.77,4.49,40.43,40.43,0,0,0,8.44,3.26c.83.27,1.64.53,2.42.76a17.83,17.83,0,0,1,2.15.76,50.09,50.09,0,0,1,15.09,7.69Q313,292.54,313,301.4q0,10-7.55,15.64t-20.28,5.68Q272.33,322.72,264.71,317Z" transform="translate(-126.39 -201.93)"/><path class="cls-1" d="M318.42,348.82a2.32,2.32,0,0,1-.28-1.18V334.9c0-1.1.51-1.66,1.53-1.66,5.26-.09,9-.85,11.28-2.28s3.71-4.36,4.36-8.79l-.14-.83L315.23,252.4l-.13-.56c0-.92.5-1.38,1.52-1.38h17.44a1.65,1.65,0,0,1,1.8,1.52l9,43.06c.09.37.23.55.42.55s.32-.18.41-.55l9-43.06a1.65,1.65,0,0,1,1.8-1.52l17.16.14a1.35,1.35,0,0,1,1.18.48,1.74,1.74,0,0,1,.21,1.32l-21.18,72q-3,10.11-6.44,15.16A19.53,19.53,0,0,1,337.8,347q-6.23,2.35-17.86,2.35h-.83A.79.79,0,0,1,318.42,348.82Z" transform="translate(-126.39 -201.93)"/><path class="cls-1" d="M506.65,285.49l-.14,5.39a1.46,1.46,0,0,1-1.66,1.66H468.17a.62.62,0,0,0-.7.69c.19,2.13.37,3.7.56,4.71a9.75,9.75,0,0,0,3.39,6.09,10.2,10.2,0,0,0,6.71,2.22,9.7,9.7,0,0,0,9.42-6.23,1.77,1.77,0,0,1,2.07-1.11l14.68,2.91a1.4,1.4,0,0,1,1.1,2.07,27,27,0,0,1-10,14.06q-7,4.91-17.24,4.91-12.31,0-19.59-5.61t-9.48-16.12q-1.24-5.69-1.24-17.31a63.32,63.32,0,0,1,.83-11.21,25.78,25.78,0,0,1,9.13-16.82q7.62-6.3,19.25-6.3,12.59,0,20.48,7.13t8.73,18.76Q506.65,279.94,506.65,285.49Zm-35.65-17a10.51,10.51,0,0,0-3.11,6.1,31.58,31.58,0,0,0-.42,5.26.61.61,0,0,0,.7.69h18a.61.61,0,0,0,.69-.69,32.71,32.71,0,0,0-.41-5.26,9.82,9.82,0,0,0-3.05-6,9.67,9.67,0,0,0-12.39-.07Z" transform="translate(-126.39 -201.93)"/><path class="cls-1" d="M556,251.29a2,2,0,0,1,.83,2.22l-2.77,15.91c-.09,1.11-.74,1.44-1.94,1a16.56,16.56,0,0,0-4-.55,17,17,0,0,0-3.6.42,10.46,10.46,0,0,0-6.78,3.87,12.14,12.14,0,0,0-2.77,8v37.93a1.62,1.62,0,0,1-.49,1.18,1.59,1.59,0,0,1-1.17.48h-16.2a1.64,1.64,0,0,1-1.66-1.66V252.26a1.63,1.63,0,0,1,.48-1.18,1.61,1.61,0,0,1,1.18-.48h16.2a1.59,1.59,0,0,1,1.17.48,1.64,1.64,0,0,1,.49,1.18v5.54c0,.37.07.58.2.62s.3-.07.49-.35q4.85-8.44,13.56-8.44A13.91,13.91,0,0,1,556,251.29Z" transform="translate(-126.39 -201.93)"/><path class="cls-1" d="M599.64,251.57l.48-.49a1.61,1.61,0,0,1,1.18-.48h16.19a1.66,1.66,0,0,1,1.67,1.66v64.65q0,16.6-9.21,24.71t-26.37,8.1a78.6,78.6,0,0,1-7.89-.42,1.61,1.61,0,0,1-1.66-1.8l.41-14c0-1,.6-1.52,1.8-1.52a47.92,47.92,0,0,0,5.81.27c6.19,0,10.66-1.31,13.44-3.94s4.15-6.81,4.15-12.53a.56.56,0,0,0-.28-.55c-.19-.1-.37,0-.55.27q-5.13,6-14.12,6a22.84,22.84,0,0,1-15.23-5.26q-6.24-5.27-7.89-15.65-1-3.6-1-14.67t1.24-15.51q1.53-9.83,7.34-15.36t15.09-5.54q9.13,0,14.54,6.23c.18.28.36.37.55.28a.58.58,0,0,0,.28-.56v-3.87Zm0,34.33a95.74,95.74,0,0,0-.56-11.49,10.56,10.56,0,0,0-3-6,8.39,8.39,0,0,0-6-2.21,8.28,8.28,0,0,0-5.88,2.28,10.65,10.65,0,0,0-3.11,5.89,69.83,69.83,0,0,0-.83,11.49,82.55,82.55,0,0,0,.69,11.21,10.34,10.34,0,0,0,3.11,5.95,8.78,8.78,0,0,0,6.16,2.22,8.37,8.37,0,0,0,6-2.22,9.71,9.71,0,0,0,2.9-5.81A94.34,94.34,0,0,0,599.64,285.9Z" transform="translate(-126.39 -201.93)"/><path class="cls-1" d="M630.41,239.45a11.74,11.74,0,0,1-.07-15.71,10.45,10.45,0,0,1,7.82-3,10.94,10.94,0,1,1,0,21.87A10.36,10.36,0,0,1,630.41,239.45ZM629,321.27a1.59,1.59,0,0,1-.49-1.18V252.26a1.66,1.66,0,0,1,1.67-1.66h16.19a1.64,1.64,0,0,1,1.66,1.66v67.83a1.61,1.61,0,0,1-.48,1.18,1.63,1.63,0,0,1-1.18.48H630.14A1.6,1.6,0,0,1,629,321.27Z" transform="translate(-126.39 -201.93)"/><path class="cls-1" d="M701.66,252.47a24.19,24.19,0,0,1,10.17,8.3,20.87,20.87,0,0,1,3.67,12.12v47.2a1.61,1.61,0,0,1-.48,1.18,1.63,1.63,0,0,1-1.18.48h-16.2a1.66,1.66,0,0,1-1.66-1.66v-3.87a.57.57,0,0,0-.27-.56c-.19-.09-.37,0-.56.28q-5.26,6.93-16.33,6.92-9.42,0-15.72-4.85t-6.29-16.19q0-22.56,28.24-22.57h10.24a.61.61,0,0,0,.69-.69v-3.18a9.15,9.15,0,0,0-2.42-6.65,8.77,8.77,0,0,0-6.58-2.49,9.49,9.49,0,0,0-5.53,1.53,6.41,6.41,0,0,0-2.77,4.15,1.82,1.82,0,0,1-1.94,1.38l-16.75-1a1.78,1.78,0,0,1-1.18-.41,1.07,1.07,0,0,1-.34-1.11,20.81,20.81,0,0,1,8.65-15.44q7.82-5.88,19.72-5.88A35.18,35.18,0,0,1,701.66,252.47Zm-9,53A8.4,8.4,0,0,0,696,298.5v-5.82a.61.61,0,0,0-.69-.69h-7.75c-3.42,0-6.09.74-8,2.21a7.53,7.53,0,0,0-2.91,6.37,7,7,0,0,0,2.22,5.54,8.5,8.5,0,0,0,5.81,1.94A12.56,12.56,0,0,0,692.66,305.42Z" transform="translate(-126.39 -201.93)"/><path class="cls-1" d="M433.26,255.93q5.75,6.44,5.74,17.93v46.23a1.61,1.61,0,0,1-.48,1.18,1.63,1.63,0,0,1-1.18.48h-16.2a1.66,1.66,0,0,1-1.66-1.66V276.62a11.38,11.38,0,0,0-2.35-7.61,7.91,7.91,0,0,0-6.37-2.77,8.18,8.18,0,0,0-6.57,2.84,11.4,11.4,0,0,0-2.42,7.68v43.33a1.66,1.66,0,0,1-1.67,1.66H383.91a1.6,1.6,0,0,1-1.18-.48,1.62,1.62,0,0,1-.49-1.18V252.26a1.64,1.64,0,0,1,.49-1.18,1.6,1.6,0,0,1,1.18-.48H400.1a1.66,1.66,0,0,1,1.67,1.66v3.88c0,.27.08.43.27.48s.41-.12.69-.48q5-6.66,14.68-6.65Q427.51,249.49,433.26,255.93Z" transform="translate(-126.39 -201.93)"/><path class="cls-2" d="M126.39,366.5V322.59a5.6,5.6,0,0,1,2.11-4.37l33.37-26.53,43,24-69.45,55.2A5.59,5.59,0,0,1,126.39,366.5Z" transform="translate(-126.39 -201.93)"/><path class="cls-3" d="M204.9,315.67l-37-28.76-39.36-31a5.58,5.58,0,0,1-2.13-4.39V207.53a5.59,5.59,0,0,1,9-4.39l100.39,79.17a5.59,5.59,0,0,1,0,8.76Z" transform="translate(-126.39 -201.93)"/><text class="cls-4" transform="translate(194.2 184.82) scale(0.95 1.05)">Move Forward Together</text></svg>